<svg xmlns="http://www.w3.org/2000/svg" viewBox="0 0 160.77 133.18">
  <g transform="translate(-106.35,-778.69)">
    <path fill="#360E0A" d="M141.001 791.104C150.926 790.674 163.035 790.941 173.119 790.922L225.126 790.687C250.802 790.593 246.615 807.689 246.565 826.916L246.569 868.904C252.152 869.702 255.341 872.504 255.105 878.371C254.51 893.142 246.867 899.664 233.125 899.596C201.082 899.271 169.019 900.154 136.903 899.766C121.994 899.473 116.717 885.23 118.775 872.523C118.636 870.643 126.251 868.371 126.226 868.506C128.64 855.265 123.859 809.543 128.573 799.605C128.797 799.13 129.047 798.668 129.323 798.222C132.061 793.789 136.167 792.154 141.001 791.104Z"/>
    <path fill="#FFFEFE" d="M141.088 801.734C167.147 800.89 193.946 802.062 220.091 801.561C223.84 801.489 231.826 801.39 234.958 803.27C236.977 808.522 235.963 860 235.957 868.707L227.59 868.582C220.734 868.612 213.322 867.901 206.594 868.672C203.58 869.018 202.514 870.169 200.89 872.518L175.511 872.565C174.202 870.631 172.719 869.054 170.274 868.859C159.595 868.011 148.056 868.494 137.324 868.55C137.291 859.701 136.441 806.754 138.116 803.78C138.792 802.579 139.808 802.074 141.088 801.734Z"/>
    <path fill="#360E0A" d="M193.936 814.363C195.195 814.645 199.082 815.953 198.425 817.786C195.994 824.562 185.694 853.935 181.896 857.879L181.258 858.559L180.503 858.404C178.344 857.982 175.768 856.031 176.597 854.004C179.632 846.573 189.155 818.528 193.936 814.363Z"/>
    <path fill="#360E0A" d="M169.223 823.374C171.942 823.872 173.177 825.144 172.571 828.007C171.787 831.716 165.175 835.058 162.237 837.095C165.518 840.015 169.035 842.338 172.344 845.307C175.931 848.524 172.722 851.924 168.619 851.491C167.314 850.626 165.228 849.097 164.177 848.316C152.992 839.996 145.8 838.212 161.58 828.626C163.469 827.478 166.395 824.828 169.223 823.374Z"/>
    <path fill="#360E0A" d="M203.755 823.311C207.771 824.539 216.607 832.261 220.122 834.904C225.469 838.923 208.421 848.95 205.418 851.016C201.876 852.381 199.943 851.361 200.115 847.498C200.237 844.768 209.462 838.75 211.65 836.959C207.949 834.383 194.335 828.099 203.058 823.675L203.755 823.311Z"/>
    <path fill="#FFFEFE" d="M129.497 879.045C141.774 878.947 154.052 878.968 166.329 879.107C167.467 880.569 168.946 882.007 170.247 883.349C181.429 883.83 193.821 883.375 205.072 883.083C207.262 883.026 208.501 880.711 209.599 879.04C215.254 879.006 239.027 878.419 243.25 879.618C243.959 881.454 243.568 881.652 243.265 883.916C240.805 889.405 239.761 888.756 233.9 888.857C222.064 889.061 210.214 888.983 198.377 888.968L134.042 889.045C129.048 885.516 129.339 884.86 129.497 879.045Z"/>
  </g>
</svg>
